<svg data-v-0dd9719b="" version="1.0" xmlns="http://www.w3.org/2000/svg" xmlns:xlink="http://www.w3.org/1999/xlink" width="100%" height="100%" viewBox="0 0 340.000000 250.000000" preserveAspectRatio="xMidYMid meet" color-interpolation-filters="sRGB" style="margin: auto;"> <rect data-v-0dd9719b="" x="0" y="0" width="100%" height="100%" fill="#feffff" fill-opacity="1" class="background"></rect> <rect data-v-0dd9719b="" x="0" y="0" width="100%" height="100%" fill="url(#watermark)" fill-opacity="1" class="watermarklayer"></rect> <g data-v-0dd9719b="" fill="#119e95" class="iconlinesvg-g iconlinesvg" transform="translate(80.41006469726562,109.52513122558594)"><g class="tp-name"><g transform="translate(0, 0)"><g><g class="imagesvg"><g><rect fill="#119e95" fill-opacity="0" stroke-width="2" x="0" y="0" width="30.949737434358592" height="30.949737434358592" class="image-rect"></rect> <svg x="0" y="0" width="30.949737434358592" height="30.949737434358592" filtersec="colorsb8709509601" class="image-svg-svg primary" style="overflow: visible;"><svg xmlns="http://www.w3.org/2000/svg" viewBox="0 0 67.36000061035156 67.36000061035156"><g><g><path d="M33.68 0a33.68 33.68 0 1 0 33.68 33.68A33.72 33.72 0 0 0 33.68 0zm0 63.74a30.06 30.06 0 1 1 30.06-30.06 30.1 30.1 0 0 1-30.06 30.06z" fill="#119e95"></path><path d="M29.56 31.94a1.74 1.74 0 0 0 0 3.48h27.8a23.73 23.73 0 1 1-2.71-12.88l3.07-1.64a27.23 27.23 0 1 0 3.18 12.78v-1.74z" fill="#22285a"></path><path d="M50.69 35.42a17.09 17.09 0 1 1-2.16-10.22l3-1.73a20.59 20.59 0 1 0 2.63 12z" fill="#119e95"></path></g></g></svg></svg> <!----></g></g></g></g><g transform="translate(34, 2.579144786196549)"><g data-gra="path-name" fill="#119e95" transform="scale(1)"><path d="M18.90-9.18L18.90-24.71L22.28-24.71L22.28-8.78Q21.88 0.14 12.15 0.41L12.15 0.41Q3.11 0.14 2.70-8.24L2.70-8.24L2.70-24.71L6.08-24.71L6.08-9.18Q6.21-2.43 12.29-2.30L12.29-2.30Q18.90-2.43 18.90-9.18L18.90-9.18Z" transform="translate(-2.7006751687921984, 25.386346586646663)"></path></g></g><g transform="translate(57, 2.579144786196549)"><g data-gra="path-name" fill="#119e95" transform="scale(1)"><path d="M22.15-12.29L22.15-12.29Q21.61-22.01 13.50-22.55L13.50-22.55Q5.27-22.15 4.86-12.29L4.86-12.29Q5.27-2.70 13.50-2.30L13.50-2.30Q21.61-2.84 22.15-12.29ZM25.52-12.29L25.52-12.29Q24.71 0 13.50 0.41L13.50 0.41Q2.16 0 1.35-12.29L1.35-12.29Q2.03-25.12 13.50-25.39L13.50-25.39Q24.71-24.98 25.52-12.29Z" transform="translate(-1.3503375843960992, 25.386346586646663)"></path></g></g><g transform="translate(85, 2.579144786196549)"><g data-gra="path-name" fill="#119e95" transform="scale(1)"><path d="M26.33-24.71L26.33 0L23.09 0L23.09-14.58Q23.09-16.61 23.09-20.80L23.09-20.80L16.07 0L12.69 0L5.81-20.80L5.67-20.80Q5.67-19.31 5.81-16.34L5.81-16.34Q5.81-14.85 5.81-14.58L5.81-14.58L5.81 0L2.43 0L2.43-24.71L7.29-24.71L14.45-3.78L21.47-24.71L26.33-24.71Z" transform="translate(-2.4306076519129785, 25.386346586646663)"></path></g></g><g transform="translate(112, 2.579144786196549)"><g data-gra="path-name" fill="#119e95" transform="scale(1)"><path d="M6.35-2.97L21.20-2.97L21.20 0L2.97 0L2.97-24.71L20.93-24.71L20.93-21.88L6.35-21.88L6.35-14.18L19.85-14.18L19.85-11.21L6.35-11.21L6.35-2.97Z" transform="translate(-2.970742685671418, 25.386346586646663)"></path></g></g><g transform="translate(134, 2.579144786196549)"><g data-gra="path-name" fill="#119e95" transform="scale(1)"><path d="M3.11-24.71L6.48-24.71L6.48 0L3.11 0L3.11-24.71Z" transform="translate(-3.105776444111028, 25.386346586646663)"></path></g></g><g transform="translate(141, 2.579144786196549)"><g data-gra="path-name" fill="#119e95" transform="scale(1)"><path d="M9.86-12.42L5.94-8.78L5.94 0L2.57 0L2.57-24.71L5.94-24.71L5.94-12.69L17.96-24.71L22.69-24.71L12.29-14.72L22.96 0L18.50 0L9.86-12.42Z" transform="translate(-2.565641410352588, 25.386346586646663)"></path></g></g><g transform="translate(165, 2.579144786196549)"><g data-gra="path-name" fill="#119e95" transform="scale(1)"><path d="M0.54-5.54L0.54-7.97L3.65-7.97L3.65-6.21Q3.65-2.16 7.43-2.16L7.43-2.16Q11.34-2.16 11.34-6.48L11.34-6.48L11.34-24.71L14.72-24.71L14.72-6.62Q14.58 0.27 7.56 0.41L7.56 0.41Q0.95 0.27 0.54-5.54L0.54-5.54Z" transform="translate(-0.5401350337584396, 25.386346586646663)"></path></g></g></g> <!----></g><defs v-gra="od"></defs></svg>